<?xml version="1.0" encoding="UTF-8"?>
<svg width="164px" height="52px" viewBox="0 0 164 52" version="1.1" xmlns="http://www.w3.org/2000/svg" xmlns:xlink="http://www.w3.org/1999/xlink">
    <!-- Generator: Sketch 48.2 (47327) - http://www.bohemiancoding.com/sketch -->
    <title>Apple Store</title>
    <desc>Created with Sketch.</desc>
    <defs>
        <rect id="path-1" x="0" y="0" width="159.75" height="48" rx="7.5"></rect>
    </defs>
    <g id="Desktop-HD" stroke="none" stroke-width="1" fill="none" fill-rule="evenodd" transform="translate(-88.000000, -469.000000)">
        <g id="Group-12" transform="translate(86.000000, 243.000000)">
            <g id="Group-4" transform="translate(4.000000, 228.000000)">
                <g id="Apple-Store">
                    <g id="button">
                        <use fill="#233241" fill-rule="evenodd" xlink:href="#path-1"></use>
                        <rect stroke="#3398F2" stroke-width="1.75" x="-0.875" y="-0.875" width="161.5" height="49.75" rx="7.5"></rect>
                    </g>
                    <path d="M52.005249,9.07336426 L54.7243652,9.07336426 C55.8999082,9.07336426 56.8172574,9.42126117 57.4764404,10.1170654 C58.1356234,10.8128697 58.46521,11.78515 58.46521,13.0339355 C58.46521,14.2827211 58.1365389,15.2559169 57.479187,15.9535522 C56.8218351,16.6511876 55.9035703,17 54.7243652,17 L52.005249,17 L52.005249,9.07336426 Z M52.9940186,9.96325684 L52.9940186,16.1101074 L54.6584473,16.1101074 C55.5446822,16.1101074 56.2322363,15.8409451 56.7211304,15.3026123 C57.2100244,14.7642795 57.4544678,14.0117236 57.4544678,13.0449219 C57.4544678,12.074458 57.2081934,11.31824 56.7156372,10.7762451 C56.223081,10.2342502 55.5373579,9.96325684 54.6584473,9.96325684 L52.9940186,9.96325684 Z M63.4356446,17.1043701 C62.5933552,17.1043701 61.9277735,16.8306302 61.4388794,16.2831421 C60.9499854,15.735654 60.705542,14.9876756 60.705542,14.0391846 C60.705542,13.0870314 60.9499854,12.3381375 61.4388794,11.7924805 C61.9277735,11.2468234 62.5933552,10.973999 63.4356446,10.973999 C64.2779339,10.973999 64.9435157,11.2468234 65.4324097,11.7924805 C65.9213037,12.3381375 66.1657471,13.0870314 66.1657471,14.0391846 C66.1657471,14.9876756 65.9213037,15.735654 65.4324097,16.2831421 C64.9435157,16.8306302 64.2779339,17.1043701 63.4356446,17.1043701 Z M63.4356446,16.2529297 C63.9959501,16.2529297 64.4280747,16.0588398 64.7320313,15.6706543 C65.0359879,15.2824688 65.1879639,14.738651 65.1879639,14.0391846 C65.1879639,13.3360561 65.0359879,12.7913227 64.7320313,12.4049683 C64.4280747,12.0186138 63.9959501,11.8254395 63.4356446,11.8254395 C62.875339,11.8254395 62.4432144,12.0186138 62.1392578,12.4049683 C61.8353013,12.7913227 61.6833252,13.3360561 61.6833252,14.0391846 C61.6833252,14.738651 61.8353013,15.2824688 62.1392578,15.6706543 C62.4432144,16.0588398 62.875339,16.2529297 63.4356446,16.2529297 Z M75.8273438,11.0783691 L75.6598023,11.677124 C75.5481074,12.0762959 75.4098642,12.5697602 75.2450684,13.1575317 L74.7506837,14.9208374 C74.5858879,15.5086089 74.4476447,16.0020732 74.3359498,16.4012451 L74.1684083,17 L73.2071046,17 L71.883252,12.4187012 L71.7953614,12.4187012 L70.477002,17 L69.5211915,17 L67.8622559,11.0783691 L68.8180665,11.0783691 L69.9826173,15.8134766 L70.0705079,15.8134766 L71.3943604,11.0783691 L72.3007325,11.0783691 L73.624585,15.8134766 L73.7124757,15.8134766 L74.8770264,11.0783691 L75.8273438,11.0783691 Z M78.0402101,17 L78.0402101,11.0783691 L78.941089,11.0783691 L78.941089,12.012207 L79.0289796,12.012207 C79.1791268,11.6862777 79.3997667,11.4317636 79.6909059,11.2486572 C79.982045,11.0655508 80.3546609,10.973999 80.8087648,10.973999 C81.475272,10.973999 81.9870467,11.1635113 82.3441041,11.5425415 C82.7011616,11.9215717 82.8796876,12.462643 82.8796876,13.1657715 L82.8796876,17 L81.9348634,17 L81.9348634,13.3964844 C81.9348634,12.8618137 81.8204236,12.4663099 81.5915406,12.2099609 C81.3626577,11.953612 81.0120142,11.8254395 80.5395997,11.8254395 C80.0671852,11.8254395 79.6899918,11.9737534 79.4080079,12.2703857 C79.1260241,12.5670181 78.9850343,12.9753392 78.9850343,13.4953613 L78.9850343,17 L78.0402101,17 Z M85.6089113,17 L85.6089113,8.72729492 L86.5537355,8.72729492 L86.5537355,17 L85.6089113,17 Z M91.7713625,17.1043701 C90.9290731,17.1043701 90.2634914,16.8306302 89.7745973,16.2831421 C89.2857033,15.735654 89.0412599,14.9876756 89.0412599,14.0391846 C89.0412599,13.0870314 89.2857033,12.3381375 89.7745973,11.7924805 C90.2634914,11.2468234 90.9290731,10.973999 91.7713625,10.973999 C92.6136519,10.973999 93.2792336,11.2468234 93.7681276,11.7924805 C94.2570217,12.3381375 94.501465,13.0870314 94.501465,14.0391846 C94.501465,14.9876756 94.2570217,15.735654 93.7681276,16.2831421 C93.2792336,16.8306302 92.6136519,17.1043701 91.7713625,17.1043701 Z M91.7713625,16.2529297 C92.331668,16.2529297 92.7637926,16.0588398 93.0677492,15.6706543 C93.3717058,15.2824688 93.5236818,14.738651 93.5236818,14.0391846 C93.5236818,13.3360561 93.3717058,12.7913227 93.0677492,12.4049683 C92.7637926,12.0186138 92.331668,11.8254395 91.7713625,11.8254395 C91.2110569,11.8254395 90.7789324,12.0186138 90.4749758,12.4049683 C90.1710192,12.7913227 90.0190431,13.3360561 90.0190431,14.0391846 C90.0190431,14.738651 90.1710192,15.2824688 90.4749758,15.6706543 C90.7789324,16.0588398 91.2110569,16.2529297 91.7713625,16.2529297 Z M98.7577883,16.2749023 C99.2448513,16.2749023 99.6485948,16.132997 99.969031,15.8491821 C100.289467,15.5653672 100.449683,15.2128927 100.449683,14.791748 L100.449683,14.2479248 L98.8566653,14.3522949 C97.9924031,14.410889 97.5602785,14.7331514 97.5602785,15.3190918 C97.5602785,15.6193863 97.6738028,15.8537589 97.9008547,16.0222168 C98.1279066,16.1906747 98.4135483,16.2749023 98.7577883,16.2749023 Z M98.5820071,17.1043701 C98.007053,17.1043701 97.530068,16.9459855 97.1510378,16.6292114 C96.7720076,16.3124374 96.5824953,15.8830594 96.5824953,15.3410645 C96.5824953,14.2570747 97.3020926,13.6729741 98.7413088,13.5887451 L100.449683,13.484375 L100.449683,12.9460449 C100.449683,12.1916466 100.00291,11.8144531 99.1093508,11.8144531 C98.7541244,11.8144531 98.4593276,11.8785394 98.2249514,12.0067139 C97.9905752,12.1348883 97.8404302,12.3161609 97.7745119,12.5505371 L96.8187014,12.5505371 C96.8809576,12.0744605 97.1263164,11.6926894 97.5547854,11.4052124 C97.9832543,11.1177354 98.5124238,10.973999 99.1423098,10.973999 C99.8637489,10.973999 100.419468,11.148863 100.809485,11.4985962 C101.199502,11.8483294 101.394507,12.3308075 101.394507,12.9460449 L101.394507,17 L100.493628,17 L100.493628,16.1265869 L100.405738,16.1265869 C100.215307,16.4415299 99.9626239,16.6832267 99.6476809,16.8516846 C99.3327379,17.0201424 98.9775168,17.1043701 98.5820071,17.1043701 Z M106.282544,17.1043701 C105.524484,17.1043701 104.920242,16.8260526 104.4698,16.2694092 C104.019358,15.7127658 103.794141,14.969365 103.794141,14.0391846 C103.794141,13.1090041 104.021189,12.3656034 104.475293,11.80896 C104.929397,11.2523166 105.531808,10.973999 106.282544,10.973999 C106.696365,10.973999 107.067149,11.0655508 107.39491,11.2486572 C107.72267,11.4317636 107.970776,11.6862777 108.139234,12.012207 L108.221631,12.012207 L108.221631,8.72729492 L109.166455,8.72729492 L109.166455,17 L108.265576,17 L108.265576,16.0551758 L108.177686,16.0551758 C107.990917,16.3847673 107.73091,16.6420279 107.397657,16.8269653 C107.064403,17.0119028 106.692702,17.1043701 106.282544,17.1043701 Z M106.502271,11.8254395 C105.963938,11.8254395 105.540969,12.0222759 105.23335,12.4159546 C104.925731,12.8096333 104.771924,13.3507046 104.771924,14.0391846 C104.771924,14.7313267 104.924816,15.2733135 105.230603,15.6651611 C105.536391,16.0570088 105.960276,16.2529297 106.502271,16.2529297 C107.040604,16.2529297 107.465404,16.0551778 107.776685,15.659668 C108.087966,15.2641582 108.243604,14.7240024 108.243604,14.0391846 C108.243604,13.3616909 108.08705,12.8233663 107.773938,12.4241943 C107.460826,12.0250224 107.036941,11.8254395 106.502271,11.8254395 Z M118.50857,17.1043701 C117.66628,17.1043701 117.000699,16.8306302 116.511805,16.2831421 C116.02291,15.735654 115.778467,14.9876756 115.778467,14.0391846 C115.778467,13.0870314 116.02291,12.3381375 116.511805,11.7924805 C117.000699,11.2468234 117.66628,10.973999 118.50857,10.973999 C119.350859,10.973999 120.016441,11.2468234 120.505335,11.7924805 C120.994229,12.3381375 121.238672,13.0870314 121.238672,14.0391846 C121.238672,14.9876756 120.994229,15.735654 120.505335,16.2831421 C120.016441,16.8306302 119.350859,17.1043701 118.50857,17.1043701 Z M118.50857,16.2529297 C119.068875,16.2529297 119.501,16.0588398 119.804956,15.6706543 C120.108913,15.2824688 120.260889,14.738651 120.260889,14.0391846 C120.260889,13.3360561 120.108913,12.7913227 119.804956,12.4049683 C119.501,12.0186138 119.068875,11.8254395 118.50857,11.8254395 C117.948264,11.8254395 117.51614,12.0186138 117.212183,12.4049683 C116.908226,12.7913227 116.75625,13.3360561 116.75625,14.0391846 C116.75625,14.738651 116.908226,15.2824688 117.212183,15.6706543 C117.51614,16.0588398 117.948264,16.2529297 118.50857,16.2529297 Z M123.671265,17 L123.671265,11.0783691 L124.572144,11.0783691 L124.572144,12.012207 L124.660035,12.012207 C124.810182,11.6862777 125.030822,11.4317636 125.321961,11.2486572 C125.6131,11.0655508 125.985716,10.973999 126.43982,10.973999 C127.106327,10.973999 127.618102,11.1635113 127.975159,11.5425415 C128.332216,11.9215717 128.510743,12.462643 128.510743,13.1657715 L128.510743,17 L127.565918,17 L127.565918,13.3964844 C127.565918,12.8618137 127.451479,12.4663099 127.222596,12.2099609 C126.993713,11.953612 126.643069,11.8254395 126.170655,11.8254395 C125.69824,11.8254395 125.321047,11.9737534 125.039063,12.2703857 C124.757079,12.5670181 124.616089,12.9753392 124.616089,13.4953613 L124.616089,17 L123.671265,17 Z M135.70503,9.54577637 L136.649854,9.54577637 L136.649854,11.0783691 L137.968213,11.0783691 L137.968213,11.8693848 L136.649854,11.8693848 L136.649854,15.2202148 C136.649854,15.568117 136.719433,15.8208 136.858594,15.9782715 C136.997755,16.135743 137.221141,16.2144775 137.52876,16.2144775 C137.612989,16.2144775 137.685315,16.2126465 137.74574,16.2089844 C137.806165,16.2053222 137.880322,16.1998291 137.968213,16.1925049 L137.968213,16.9890137 C137.87666,17.0073243 137.785108,17.0210571 137.693555,17.0302124 C137.602002,17.0393677 137.508619,17.0439453 137.413404,17.0439453 C136.805491,17.0439453 136.368788,16.9212659 136.103284,16.6759033 C135.83778,16.4305408 135.70503,16.0258817 135.70503,15.4619141 L135.70503,11.8693848 L134.749219,11.8693848 L134.749219,11.0783691 L135.70503,11.0783691 L135.70503,9.54577637 Z M140.400806,17 L140.400806,8.72729492 L141.34563,8.72729492 L141.34563,12.012207 L141.433521,12.012207 C141.583668,11.6862777 141.811632,11.4317636 142.11742,11.2486572 C142.423208,11.0655508 142.803148,10.973999 143.257251,10.973999 C143.883475,10.973999 144.380602,11.1653423 144.748645,11.5480347 C145.116689,11.930727 145.300708,12.4699672 145.300708,13.1657715 L145.300708,17 L144.355884,17 L144.355884,13.3964844 C144.355884,12.8728001 144.239613,12.4800428 144.007068,12.2182007 C143.774523,11.9563586 143.434866,11.8254395 142.988086,11.8254395 C142.457078,11.8254395 142.050588,11.978331 141.768604,12.2841187 C141.48662,12.5899063 141.34563,12.9936498 141.34563,13.4953613 L141.34563,17 L140.400806,17 Z M150.337061,11.80896 C149.864647,11.80896 149.476467,11.9682601 149.17251,12.2868652 C148.868554,12.6054703 148.698267,13.0266087 148.661646,13.550293 L151.924585,13.550293 C151.913599,13.0266087 151.763454,12.6054703 151.474146,12.2868652 C151.184838,11.9682601 150.805813,11.80896 150.337061,11.80896 Z M151.89712,15.4674072 L152.841944,15.4674072 C152.699121,15.976443 152.409817,16.3765244 151.974024,16.6676636 C151.538231,16.9588027 150.996244,17.1043701 150.348047,17.1043701 C149.527731,17.1043701 148.877713,16.8287991 148.397974,16.2776489 C147.918235,15.7264987 147.67837,14.9821824 147.67837,14.0446777 C147.67837,13.1144973 147.920066,12.370181 148.403467,11.8117065 C148.886868,11.2532321 149.535055,10.973999 150.348047,10.973999 C151.146391,10.973999 151.774437,11.2404148 152.232203,11.7732544 C152.689969,12.306094 152.918848,13.0320999 152.918848,13.9512939 L152.918848,14.3138428 L148.661646,14.3138428 L148.661646,14.3577881 C148.687281,14.9437285 148.85299,15.4088118 149.158777,15.7530518 C149.464565,16.0972918 149.868309,16.2694092 150.37002,16.2694092 C150.750881,16.2694092 151.069482,16.2007453 151.325831,16.0634155 C151.58218,15.9260857 151.772607,15.7274183 151.89712,15.4674072 Z" id="Download-on-the" fill="#3398F2"></path>
                    <path d="M62.4378662,38.25 L62.2042236,37.5862427 C62.0484611,37.1437356 61.869691,36.6339751 61.6679077,36.0569458 C61.4661245,35.4799165 61.2873543,34.970156 61.1315918,34.5276489 L60.8979492,33.8638916 L54.802002,33.8638916 L53.262085,38.25 L51.2548828,38.25 L56.9047852,22.9251709 L58.795166,22.9251709 L64.4450684,38.25 L62.4378662,38.25 Z M57.8181152,25.2509766 L57.5685425,25.9572144 C57.4021598,26.4280419 57.1986096,27.0103725 56.9578857,27.7042236 C56.7171619,28.3980748 56.4746716,29.0919155 56.2304077,29.7857666 C55.9861438,30.4796177 55.7808236,31.0619483 55.6144409,31.5327759 L55.3648682,32.2390137 L60.335083,32.2390137 L57.8818359,25.2509766 L57.8181152,25.2509766 Z M71.6136475,27.013916 C73.0225901,27.013916 74.1624712,27.5325266 75.0333252,28.5697632 C75.9041792,29.6069998 76.3395996,30.9929112 76.3395996,32.7275391 C76.3395996,34.4550868 75.9077192,35.8392282 75.0439453,36.8800049 C74.1801715,37.9207816 73.0509103,38.4411621 71.6561279,38.4411621 C70.8631552,38.4411621 70.1622345,38.2606219 69.5533447,37.8995361 C68.944455,37.5384503 68.4736345,37.0570098 68.1408691,36.4552002 L68.0983887,36.4552002 L68.0983887,41.9351807 L66.2504883,41.9351807 L66.2504883,27.2050781 L68.0028076,27.2050781 L68.0028076,29.0742188 L68.0452881,29.0742188 C68.3851335,28.4511688 68.864804,27.9520282 69.484314,27.5767822 C70.1038239,27.2015362 70.8135946,27.013916 71.6136475,27.013916 Z M71.2525635,36.8162842 C72.2366993,36.8162842 73.0155001,36.4481238 73.5889893,35.711792 C74.1624785,34.9754602 74.4492188,33.9807192 74.4492188,32.7275391 C74.4492188,31.4814391 74.1624785,30.4884681 73.5889893,29.7485962 C73.0155001,29.0087243 72.2366993,28.6387939 71.2525635,28.6387939 C70.3109084,28.6387939 69.5480376,29.0140343 68.9639282,29.7645264 C68.3798189,30.5150184 68.0877686,31.5026794 68.0877686,32.7275391 C68.0877686,33.9594788 68.3798189,34.9489098 68.9639282,35.6958618 C69.5480376,36.4428138 70.3109084,36.8162842 71.2525635,36.8162842 Z M83.901123,27.013916 C85.3100656,27.013916 86.4499468,27.5325266 87.3208008,28.5697632 C88.1916547,29.6069998 88.6270752,30.9929112 88.6270752,32.7275391 C88.6270752,34.4550868 88.1951947,35.8392282 87.3314209,36.8800049 C86.467647,37.9207816 85.3383859,38.4411621 83.9436035,38.4411621 C83.1506308,38.4411621 82.4497101,38.2606219 81.8408203,37.8995361 C81.2319305,37.5384503 80.7611101,37.0570098 80.4283447,36.4552002 L80.3858643,36.4552002 L80.3858643,41.9351807 L78.5379639,41.9351807 L78.5379639,27.2050781 L80.2902832,27.2050781 L80.2902832,29.0742188 L80.3327637,29.0742188 C80.6726091,28.4511688 81.1522796,27.9520282 81.7717896,27.5767822 C82.3912995,27.2015362 83.1010702,27.013916 83.901123,27.013916 Z M83.5400391,36.8162842 C84.5241748,36.8162842 85.3029756,36.4481238 85.8764648,35.711792 C86.449954,34.9754602 86.7366943,33.9807192 86.7366943,32.7275391 C86.7366943,31.4814391 86.449954,30.4884681 85.8764648,29.7485962 C85.3029756,29.0087243 84.5241748,28.6387939 83.5400391,28.6387939 C82.598384,28.6387939 81.8355132,29.0140343 81.2514038,29.7645264 C80.6672944,30.5150184 80.3752441,31.5026794 80.3752441,32.7275391 C80.3752441,33.9594788 80.6672944,34.9489098 81.2514038,35.6958618 C81.8355132,36.4428138 82.598384,36.8162842 83.5400391,36.8162842 Z M95.1796875,34.0338135 L97.1019287,34.0338135 C97.1939702,34.8621868 97.6010706,35.5277074 98.3232422,36.0303955 C99.0454138,36.5330836 99.9516547,36.7844238 101.041992,36.7844238 C102.075689,36.7844238 102.9306,36.5383936 103.60675,36.0463257 C104.282901,35.5542578 104.620972,34.9329872 104.620972,34.1824951 C104.620972,33.5311247 104.385561,32.9965841 103.914734,32.5788574 C103.443906,32.1611307 102.691656,31.8212904 101.657959,31.5593262 L99.6932373,31.0495605 C96.9744737,30.3557094 95.6151123,29.006968 95.6151123,27.0032959 C95.6151123,25.7288755 96.1195628,24.6881144 97.128479,23.8809814 C98.1373952,23.0738485 99.4383465,22.6702881 101.031372,22.6702881 C102.553596,22.6702881 103.813838,23.0773885 104.812134,23.8916016 C105.81043,24.7058146 106.33081,25.7571957 106.373291,27.0457764 L104.46167,27.0457764 C104.376709,26.2244832 104.022708,25.5766625 103.399658,25.1022949 C102.776608,24.6279273 101.965947,24.3907471 100.967651,24.3907471 C99.9764355,24.3907471 99.1675446,24.6243873 98.5409546,25.0916748 C97.9143645,25.5589623 97.6010742,26.1678429 97.6010742,26.918335 C97.6010742,27.4989043 97.8294045,27.9750348 98.2860718,28.3467407 C98.7427391,28.7184467 99.4914499,29.038817 100.532227,29.3078613 L102.135864,29.732666 C103.72181,30.1291524 104.861691,30.6566129 105.555542,31.3150635 C106.249393,31.973514 106.596313,32.8514349 106.596313,33.9488525 C106.596313,35.350715 106.081243,36.4605062 105.051086,37.2782593 C104.02093,38.0960124 102.624398,38.5048828 100.86145,38.5048828 C99.2401042,38.5048828 97.9108328,38.0977824 96.8735962,37.2835693 C95.8363596,36.4693563 95.271729,35.3861152 95.1796875,34.0338135 Z M109.484985,24.5394287 L111.332886,24.5394287 L111.332886,27.2050781 L113.478149,27.2050781 L113.478149,28.7237549 L111.332886,28.7237549 L111.332886,35.2869873 C111.332886,35.7896754 111.442626,36.1596057 111.662109,36.3967896 C111.881593,36.6339734 112.228513,36.7525635 112.702881,36.7525635 C112.809083,36.7525635 112.947143,36.7454835 113.117065,36.7313232 C113.286988,36.717163 113.403808,36.706543 113.467529,36.6994629 L113.467529,38.25 C113.354247,38.2783205 113.186097,38.2995605 112.963074,38.3137207 C112.74005,38.3278809 112.5188,38.3349609 112.299316,38.3349609 C111.28686,38.3349609 110.564699,38.1084007 110.132812,37.6552734 C109.700926,37.2021462 109.484985,36.4445854 109.484985,35.3825684 L109.484985,28.7237549 L107.838867,28.7237549 L107.838867,27.2050781 L109.484985,27.2050781 L109.484985,24.5394287 Z M120.349365,38.4411621 C118.820061,38.4411621 117.584599,37.9278616 116.642944,36.9012451 C115.701289,35.8746287 115.230469,34.4834072 115.230469,32.7275391 C115.230469,30.9645908 115.701289,29.5715994 116.642944,28.5485229 C117.584599,27.5254465 118.820061,27.013916 120.349365,27.013916 C121.87159,27.013916 123.103511,27.5254465 124.045166,28.5485229 C124.986821,29.5715994 125.457642,30.9645908 125.457642,32.7275391 C125.457642,34.4834072 124.986821,35.8746287 124.045166,36.9012451 C123.103511,37.9278616 121.87159,38.4411621 120.349365,38.4411621 Z M120.349365,36.8162842 C121.326421,36.8162842 122.108762,36.4605138 122.696411,35.7489624 C123.284061,35.037411 123.577881,34.03028 123.577881,32.7275391 C123.577881,31.4247982 123.284061,30.4176671 122.696411,29.7061157 C122.108762,28.9945643 121.326421,28.6387939 120.349365,28.6387939 C119.37231,28.6387939 118.588199,28.9945643 117.997009,29.7061157 C117.40582,30.4176671 117.110229,31.4247982 117.110229,32.7275391 C117.110229,34.03028 117.40582,35.037411 117.997009,35.7489624 C118.588199,36.4605138 119.37231,36.8162842 120.349365,36.8162842 Z M127.656006,38.25 L127.656006,27.2050781 L129.397705,27.2050781 L129.397705,29.010498 L129.440186,29.010498 C129.836672,27.6794367 130.728753,27.013916 132.116455,27.013916 C132.279298,27.013916 132.426208,27.022766 132.55719,27.0404663 C132.688172,27.0581666 132.789062,27.0740966 132.859863,27.0882568 L132.859863,28.8830566 C132.789062,28.8547362 132.663392,28.8299562 132.482849,28.8087158 C132.302306,28.7874755 132.098756,28.7768555 131.872192,28.7768555 C131.157101,28.7768555 130.58362,29.0140357 130.151733,29.4884033 C129.719846,29.9627709 129.503906,30.5893516 129.503906,31.3681641 L129.503906,38.25 L127.656006,38.25 Z M139.125732,28.6175537 C138.261959,28.6175537 137.550418,28.914914 136.991089,29.5096436 C136.43176,30.1043731 136.12378,30.8619339 136.067139,31.7823486 L142.067505,31.7823486 C142.046265,30.8548538 141.768374,30.095523 141.233826,29.5043335 C140.699277,28.913144 139.996586,28.6175537 139.125732,28.6175537 Z M142.025024,35.0852051 L143.841064,35.0852051 C143.685302,36.0481005 143.180851,36.8481413 142.327698,37.4853516 C141.474544,38.1225618 140.446173,38.4411621 139.242554,38.4411621 C137.663688,38.4411621 136.421147,37.9296316 135.514893,36.9065552 C134.608638,35.8834788 134.155518,34.5046473 134.155518,32.7700195 C134.155518,31.0566321 134.608638,29.6689506 135.514893,28.6069336 C136.421147,27.5449166 137.635368,27.013916 139.157593,27.013916 C140.651497,27.013916 141.828548,27.5148265 142.688782,28.5166626 C143.549016,29.5184987 143.979126,30.85485 143.979126,32.5257568 L143.979126,33.2266846 L136.056519,33.2266846 L136.056519,33.3328857 C136.056519,34.3878227 136.346799,35.2356535 136.927368,35.8764038 C137.507937,36.5171541 138.293818,36.8375244 139.285034,36.8375244 C139.985965,36.8375244 140.578916,36.6746842 141.063904,36.348999 C141.548892,36.0233138 141.869262,35.6020534 142.025024,35.0852051 Z" id="App-Store" fill="#3398F2"></path>
                    <path d="M36.1194167,35.7784429 C34.80335,37.6944857 33.442,39.5987429 31.292625,39.6386571 C29.1772917,39.6785714 28.49915,38.3912571 26.0853583,38.3912571 C23.6690333,38.3912571 22.91315,39.5987429 20.9159175,39.6785714 C18.8409117,39.7558857 17.2631042,37.6091571 15.9361917,35.7017571 C13.2253508,31.8017857 11.15633,24.6745714 13.9389433,19.8647114 C15.3168867,17.47603 17.786,15.9646929 20.4616592,15.9247943 C22.499425,15.8874571 24.4244417,17.29255 25.6691,17.29255 C26.9156583,17.29255 29.2521833,15.6055743 31.7085667,15.8530114 C32.7367833,15.8952986 35.6225667,16.2654957 37.4758583,18.9653671 C37.3294,19.0612086 34.0313167,20.9715 34.0715333,24.9513 C34.1119083,29.7053429 38.2559667,31.2855714 38.3041,31.3071 C38.266575,31.4188286 37.6416333,33.5630429 36.1194167,35.7784429 Z M27.0948917,10.6306043 C28.2325167,9.30342286 30.1546833,8.31626714 31.741025,8.24993714 C31.9436917,10.0934586 31.1987333,11.9395257 30.098475,13.2697714 C28.996,14.5976286 27.1913167,15.6320057 25.4202,15.4938929 C25.1795333,13.69027 26.0722167,11.8092386 27.0948917,10.6306043 Z" id="logo" fill="#3398F2" fill-rule="nonzero"></path>
                </g>
            </g>
        </g>
    </g>
</svg>