<?xml version="1.0" encoding="UTF-8"?>
<svg width="164px" height="52px" viewBox="0 0 164 52" version="1.1" xmlns="http://www.w3.org/2000/svg" xmlns:xlink="http://www.w3.org/1999/xlink">
    <!-- Generator: Sketch 48.2 (47327) - http://www.bohemiancoding.com/sketch -->
    <title>Google Play</title>
    <desc>Created with Sketch.</desc>
    <defs>
        <rect id="path-1" x="0" y="0" width="159.75" height="48" rx="7.5"></rect>
    </defs>
    <g id="Desktop-HD" stroke="none" stroke-width="1" fill="none" fill-rule="evenodd" transform="translate(-270.000000, -469.000000)">
        <g id="Group-12" transform="translate(86.000000, 243.000000)">
            <g id="Group-4" transform="translate(4.000000, 228.000000)">
                <g id="Google-Play" transform="translate(182.250000, 0.000000)">
                    <g id="button">
                        <use fill="#233241" fill-rule="evenodd" xlink:href="#path-1"></use>
                        <rect stroke="#3398F2" stroke-width="1.75" x="-0.875" y="-0.875" width="161.5" height="49.75" rx="7.5"></rect>
                    </g>
                    <path d="M52.6242447,16 L52.6242447,8.00195312 L54.8819352,8.00195312 C55.5777394,8.00195312 56.1929676,8.15576018 56.7276383,8.46337891 C57.2623089,8.77099763 57.6752076,9.20861533 57.9663468,9.77624512 C58.2574859,10.3438749 58.4048844,10.9957239 58.4085465,11.7318115 L58.4085465,12.2426758 C58.4085465,12.9970741 58.2629791,13.6580782 57.9718399,14.225708 C57.6807008,14.7933378 57.2650555,15.2291245 56.7248917,15.5330811 C56.1847279,15.8370377 55.5557669,15.9926757 54.8379898,16 L52.6242447,16 Z M53.6789322,8.86987305 L53.6789322,15.1375732 L54.7885514,15.1375732 C55.6015437,15.1375732 56.2341668,14.8848902 56.6864396,14.3795166 C57.1387123,13.874143 57.3648453,13.1545457 57.3648453,12.2207031 L57.3648453,11.7537842 C57.3648453,10.8455765 57.1515296,10.139712 56.7248917,9.63616943 C56.2982538,9.13262688 55.6930963,8.8771973 54.909401,8.86987305 L53.6789322,8.86987305 Z M60.4730973,12.9732666 C60.4730973,12.3909883 60.5875371,11.8673119 60.8164201,11.4022217 C61.045303,10.9371315 61.3639034,10.5782483 61.7722306,10.3255615 C62.1805578,10.0728747 62.6465566,9.9465332 63.1702409,9.9465332 C63.9795711,9.9465332 64.6341666,10.2266818 65.134047,10.7869873 C65.6339274,11.3472928 65.8838639,12.0925246 65.8838639,13.0227051 L65.8838639,13.0941162 C65.8838639,13.6727324 65.7730862,14.1918312 65.5515275,14.6514282 C65.3299688,15.1110252 65.0131995,15.4689929 64.6012101,15.7253418 C64.1892207,15.9816907 63.7158978,16.1098633 63.1812272,16.1098633 C62.3755591,16.1098633 61.7227946,15.8297147 61.2229142,15.2694092 C60.7230338,14.7091036 60.4730973,13.9675339 60.4730973,13.0446777 L60.4730973,12.9732666 Z M61.4948258,13.0941162 C61.4948258,13.7532992 61.6477174,14.2824687 61.953505,14.6816406 C62.2592927,15.0808125 62.6685293,15.2803955 63.1812272,15.2803955 C63.6975872,15.2803955 64.1077393,15.078066 64.4116959,14.6734009 C64.7156525,14.2687358 64.8676286,13.70203 64.8676286,12.9732666 C64.8676286,12.3214079 64.712906,11.7931539 64.4034562,11.3884888 C64.0940064,10.9838237 63.6829387,10.7814941 63.1702409,10.7814941 C62.6685294,10.7814941 62.2638703,10.9810771 61.9562516,11.380249 C61.6486329,11.7794209 61.4948258,12.3507043 61.4948258,13.0941162 Z M73.3207292,14.5992432 L74.4633073,10.0563965 L75.4795426,10.0563965 L73.749196,16 L72.9252214,16 L71.4805192,11.4956055 L70.0742692,16 L69.2502946,16 L67.5254411,10.0563965 L68.5361833,10.0563965 L69.7062272,14.5058594 L71.0905046,10.0563965 L71.908986,10.0563965 L73.3207292,14.5992432 Z M78.3735612,10.0563965 L78.4065202,10.8034668 C78.8606241,10.2321749 79.4538798,9.9465332 80.1863054,9.9465332 C81.4424152,9.9465332 82.0759538,10.6551443 82.0869401,12.0723877 L82.0869401,16 L81.0707048,16 L81.0707048,12.0668945 C81.0670427,11.6384256 80.9690822,11.3216563 80.7768205,11.1165771 C80.5845588,10.911498 80.2851844,10.80896 79.8786882,10.80896 C79.5490967,10.80896 79.259793,10.8968497 79.0107683,11.0726318 C78.7617436,11.248414 78.5676537,11.4791245 78.4284929,11.7647705 L78.4284929,16 L77.4122575,16 L77.4122575,10.0563965 L78.3735612,10.0563965 Z M85.6236589,16 L84.6074236,16 L84.6074236,7.5625 L85.6236589,7.5625 L85.6236589,16 Z M87.8804705,12.9732666 C87.8804705,12.3909883 87.9949103,11.8673119 88.2237932,11.4022217 C88.4526762,10.9371315 88.7712766,10.5782483 89.1796038,10.3255615 C89.587931,10.0728747 90.0539298,9.9465332 90.577614,9.9465332 C91.3869443,9.9465332 92.0415398,10.2266818 92.5414202,10.7869873 C93.0413006,11.3472928 93.2912371,12.0925246 93.2912371,13.0227051 L93.2912371,13.0941162 C93.2912371,13.6727324 93.1804594,14.1918312 92.9589007,14.6514282 C92.7373419,15.1110252 92.4205726,15.4689929 92.0085833,15.7253418 C91.5965939,15.9816907 91.123271,16.1098633 90.5886004,16.1098633 C89.7829323,16.1098633 89.1301678,15.8297147 88.6302874,15.2694092 C88.130407,14.7091036 87.8804705,13.9675339 87.8804705,13.0446777 L87.8804705,12.9732666 Z M88.902199,13.0941162 C88.902199,13.7532992 89.0550905,14.2824687 89.3608782,14.6816406 C89.6666659,15.0808125 90.0759025,15.2803955 90.5886004,15.2803955 C91.1049604,15.2803955 91.5151125,15.078066 91.8190691,14.6734009 C92.1230257,14.2687358 92.2750017,13.70203 92.2750017,12.9732666 C92.2750017,12.3214079 92.1202792,11.7931539 91.8108294,11.3884888 C91.5013796,10.9838237 91.0903119,10.7814941 90.577614,10.7814941 C90.0759026,10.7814941 89.6712435,10.9810771 89.3636248,11.380249 C89.0560061,11.7794209 88.902199,12.3507043 88.902199,13.0941162 Z M99.1350848,16 C99.0764907,15.8828119 99.0288838,15.6740738 98.9922625,15.3737793 C98.519848,15.8645044 97.9558888,16.1098633 97.300368,16.1098633 C96.7144276,16.1098633 96.2337805,15.9441545 95.8584124,15.6127319 C95.4830443,15.2813094 95.2953631,14.8610865 95.2953631,14.3520508 C95.2953631,13.7331512 95.5306513,13.2525042 96.0012347,12.9100952 C96.4718181,12.5676863 97.1337377,12.3964844 97.9870135,12.3964844 L98.975783,12.3964844 L98.975783,11.9295654 C98.975783,11.574339 98.8695829,11.2914439 98.6571795,11.0808716 C98.4447761,10.8702992 98.1316689,10.7650146 97.7178485,10.7650146 C97.3552978,10.7650146 97.0513458,10.8565665 96.8059832,11.0396729 C96.5606207,11.2227792 96.4379412,11.4443346 96.4379412,11.7043457 L95.4162127,11.7043457 C95.4162127,11.4077134 95.5214973,11.1211562 95.7320696,10.8446655 C95.942642,10.5681749 96.2282837,10.349366 96.5890032,10.1882324 C96.9497228,10.0270988 97.3461422,9.9465332 97.7782733,9.9465332 C98.4630911,9.9465332 98.9995848,10.1177351 99.3877703,10.460144 C99.7759559,10.802553 99.9773699,11.2740448 99.9920184,11.8746338 L99.9920184,14.6102295 C99.9920184,15.1558865 100.061598,15.5898421 100.200759,15.9121094 L100.200759,16 L99.1350848,16 Z M97.4486834,15.2254639 C97.7672885,15.2254639 98.0694095,15.1430672 98.3550555,14.9782715 C98.6407014,14.8134757 98.8476086,14.5992445 98.975783,14.3355713 L98.975783,13.1160889 L98.1792742,13.1160889 C96.9341508,13.1160889 96.3115985,13.4804651 96.3115985,14.2092285 C96.3115985,14.5278336 96.4177986,14.7768546 96.630202,14.9562988 C96.8426054,15.1357431 97.1154298,15.2254639 97.4486834,15.2254639 Z M102.237844,12.9787598 C102.237844,12.06689 102.453906,11.3335599 102.886037,10.7787476 C103.318168,10.2239352 103.883958,9.9465332 104.583425,9.9465332 C105.279229,9.9465332 105.830371,10.1845679 106.236867,10.6606445 L106.236867,7.5625 L107.253102,7.5625 L107.253102,16 L106.319265,16 L106.269826,15.362793 C105.86333,15.8608423 105.29754,16.1098633 104.572438,16.1098633 C103.883958,16.1098633 103.322746,15.8278837 102.888784,15.263916 C102.454821,14.6999484 102.237844,13.9638717 102.237844,13.0556641 L102.237844,12.9787598 Z M103.254079,13.0941162 C103.254079,13.7679477 103.393238,14.2952862 103.671559,14.6761475 C103.949881,15.0570087 104.334399,15.2474365 104.825124,15.2474365 C105.469658,15.2474365 105.940235,14.9581328 106.236867,14.3795166 L106.236867,11.6494141 C105.93291,11.0891085 105.465996,10.80896 104.83611,10.80896 C104.338061,10.80896 103.949881,11.0012188 103.671559,11.3857422 C103.393238,11.7702656 103.254079,12.3397179 103.254079,13.0941162 Z M113.14551,12.9732666 C113.14551,12.3909883 113.259949,11.8673119 113.488832,11.4022217 C113.717715,10.9371315 114.036316,10.5782483 114.444643,10.3255615 C114.85297,10.0728747 115.318969,9.9465332 115.842653,9.9465332 C116.651983,9.9465332 117.306579,10.2266818 117.806459,10.7869873 C118.30634,11.3472928 118.556276,12.0925246 118.556276,13.0227051 L118.556276,13.0941162 C118.556276,13.6727324 118.445499,14.1918312 118.22394,14.6514282 C118.002381,15.1110252 117.685612,15.4689929 117.273622,15.7253418 C116.861633,15.9816907 116.38831,16.1098633 115.85364,16.1098633 C115.047971,16.1098633 114.395207,15.8297147 113.895327,15.2694092 C113.395446,14.7091036 113.14551,13.9675339 113.14551,13.0446777 L113.14551,12.9732666 Z M114.167238,13.0941162 C114.167238,13.7532992 114.32013,14.2824687 114.625917,14.6816406 C114.931705,15.0808125 115.340942,15.2803955 115.85364,15.2803955 C116.37,15.2803955 116.780152,15.078066 117.084108,14.6734009 C117.388065,14.2687358 117.540041,13.70203 117.540041,12.9732666 C117.540041,12.3214079 117.385318,11.7931539 117.075869,11.3884888 C116.766419,10.9838237 116.355351,10.7814941 115.842653,10.7814941 C115.340942,10.7814941 114.936283,10.9810771 114.628664,11.380249 C114.321045,11.7794209 114.167238,12.3507043 114.167238,13.0941162 Z M121.691994,10.0563965 L121.724953,10.8034668 C122.179057,10.2321749 122.772313,9.9465332 123.504738,9.9465332 C124.760848,9.9465332 125.394387,10.6551443 125.405373,12.0723877 L125.405373,16 L124.389138,16 L124.389138,12.0668945 C124.385476,11.6384256 124.287515,11.3216563 124.095253,11.1165771 C123.902992,10.911498 123.603617,10.80896 123.197121,10.80896 C122.86753,10.80896 122.578226,10.8968497 122.329201,11.0726318 C122.080176,11.248414 121.886087,11.4791245 121.746926,11.7647705 L121.746926,16 L120.73069,16 L120.73069,10.0563965 L121.691994,10.0563965 Z" id="Download-on" fill="#3398F2"></path>
                    <path d="M63.109375,36.3388672 C62.6464821,36.9423858 62.0048869,37.3994125 61.1845703,37.7099609 C60.3642537,38.0205094 59.4326224,38.1757812 58.3896484,38.1757812 C57.3173775,38.1757812 56.3681682,37.9326196 55.5419922,37.4462891 C54.7158162,36.9599585 54.0786155,36.2641647 53.6303711,35.3588867 C53.1821267,34.4536088 52.9492188,33.397467 52.9316406,32.1904297 L52.9316406,31.1884766 C52.9316406,29.2548731 53.3945266,27.7446343 54.3203125,26.6577148 C55.2460984,25.5707953 56.5380776,25.0273438 58.1962891,25.0273438 C59.6201243,25.0273438 60.7509724,25.3789027 61.5888672,26.0820312 C62.426762,26.7851598 62.9306632,27.7988215 63.1005859,29.1230469 L60.9208984,29.1230469 C60.6748035,27.5820235 59.7812577,26.8115234 58.2402344,26.8115234 C57.2441356,26.8115234 56.486819,27.1704066 55.9682617,27.8881836 C55.4497044,28.6059606 55.1816407,29.6591727 55.1640625,31.0478516 L55.1640625,32.0322266 C55.1640625,33.415046 55.4555635,34.4887657 56.0385742,35.253418 C56.6215849,36.0180702 57.4316354,36.4003906 58.46875,36.4003906 C59.6054744,36.4003906 60.4140601,36.1425807 60.8945312,35.6269531 L60.8945312,33.1220703 L58.2578125,33.1220703 L58.2578125,31.4345703 L63.109375,31.4345703 L63.109375,36.3388672 Z M64.9462891,33.1572266 C64.9462891,32.2255813 65.1308575,31.3862342 65.5,30.6391602 C65.8691425,29.8920861 66.387692,29.3178731 67.0556641,28.9165039 C67.7236362,28.5151347 68.4912066,28.3144531 69.3583984,28.3144531 C70.641608,28.3144531 71.6831015,28.7275349 72.4829102,29.5537109 C73.2827188,30.3798869 73.7148434,31.4755791 73.7792969,32.8408203 L73.7880859,33.3417969 C73.7880859,34.2793016 73.607912,35.1171838 73.2475586,35.8554688 C72.8872052,36.5937537 72.3715854,37.165037 71.7006836,37.5693359 C71.0297818,37.9736348 70.2548872,38.1757812 69.3759766,38.1757812 C68.034173,38.1757812 66.9604532,37.7290084 66.1547852,36.8354492 C65.3491171,35.9418901 64.9462891,34.750984 64.9462891,33.2626953 L64.9462891,33.1572266 Z M67.0820312,33.3417969 C67.0820312,34.3203174 67.2841777,35.086423 67.6884766,35.6401367 C68.0927755,36.1938504 68.6552698,36.4707031 69.3759766,36.4707031 C70.0966833,36.4707031 70.6577128,36.1894559 71.059082,35.6269531 C71.4604512,35.0644503 71.6611328,34.2412164 71.6611328,33.1572266 C71.6611328,32.1962843 71.4545919,31.4345731 71.0415039,30.8720703 C70.6284159,30.3095675 70.0673864,30.0283203 69.3583984,30.0283203 C68.6611293,30.0283203 68.1074239,30.305173 67.6972656,30.8588867 C67.2871073,31.4126004 67.0820312,32.2402289 67.0820312,33.3417969 Z M75.1943359,33.1572266 C75.1943359,32.2255813 75.3789044,31.3862342 75.7480469,30.6391602 C76.1171893,29.8920861 76.6357388,29.3178731 77.3037109,28.9165039 C77.971683,28.5151347 78.7392535,28.3144531 79.6064453,28.3144531 C80.8896549,28.3144531 81.9311483,28.7275349 82.730957,29.5537109 C83.5307657,30.3798869 83.9628903,31.4755791 84.0273438,32.8408203 L84.0361328,33.3417969 C84.0361328,34.2793016 83.8559588,35.1171838 83.4956055,35.8554688 C83.1352521,36.5937537 82.6196323,37.165037 81.9487305,37.5693359 C81.2778287,37.9736348 80.5029341,38.1757812 79.6240234,38.1757812 C78.2822199,38.1757812 77.2085001,37.7290084 76.402832,36.8354492 C75.5971639,35.9418901 75.1943359,34.750984 75.1943359,33.2626953 L75.1943359,33.1572266 Z M77.3300781,33.3417969 C77.3300781,34.3203174 77.5322245,35.086423 77.9365234,35.6401367 C78.3408223,36.1938504 78.9033167,36.4707031 79.6240234,36.4707031 C80.3447302,36.4707031 80.9057597,36.1894559 81.3071289,35.6269531 C81.7084981,35.0644503 81.9091797,34.2412164 81.9091797,33.1572266 C81.9091797,32.1962843 81.7026388,31.4345731 81.2895508,30.8720703 C80.8764628,30.3095675 80.3154332,30.0283203 79.6064453,30.0283203 C78.9091762,30.0283203 78.3554708,30.305173 77.9453125,30.8588867 C77.5351542,31.4126004 77.3300781,32.2402289 77.3300781,33.3417969 Z M85.46875,33.1748047 C85.46875,31.6982348 85.8159145,30.5190474 86.5102539,29.637207 C87.2045933,28.7553667 88.1259708,28.3144531 89.2744141,28.3144531 C90.3584039,28.3144531 91.2109344,28.692379 91.8320312,29.4482422 L91.9287109,28.4902344 L93.8535156,28.4902344 L93.8535156,37.7099609 C93.8535156,38.9580141 93.4653359,39.9423792 92.6889648,40.6630859 C91.9125938,41.3837927 90.865241,41.7441406 89.546875,41.7441406 C88.8496059,41.7441406 88.1684604,41.5991225 87.503418,41.309082 C86.8383756,41.0190415 86.3330095,40.6396508 85.9873047,40.1708984 L86.9980469,38.8876953 C87.6543002,39.6669961 88.4628858,40.0566406 89.4238281,40.0566406 C90.132816,40.0566406 90.6923808,39.864748 91.1025391,39.480957 C91.5126974,39.097166 91.7177734,38.5332068 91.7177734,37.7890625 L91.7177734,37.1474609 C91.102536,37.8330112 90.2822317,38.1757812 89.2568359,38.1757812 C88.1435491,38.1757812 87.2338902,37.7334029 86.527832,36.8486328 C85.8217738,35.9638628 85.46875,34.7392656 85.46875,33.1748047 Z M87.5957031,33.359375 C87.5957031,34.3144579 87.7905254,35.0659152 88.1801758,35.6137695 C88.5698262,36.1616238 89.1103481,36.4355469 89.8017578,36.4355469 C90.6630902,36.4355469 91.3017557,36.0664099 91.7177734,35.328125 L91.7177734,31.1445312 C91.3134745,30.4238245 90.6806684,30.0634766 89.8193359,30.0634766 C89.1162074,30.0634766 88.5698262,30.3417941 88.1801758,30.8984375 C87.7905254,31.4550809 87.5957031,32.2753852 87.5957031,33.359375 Z M98.3183594,38 L96.1826172,38 L96.1826172,24.5 L98.3183594,24.5 L98.3183594,38 Z M104.831055,38.1757812 C103.477532,38.1757812 102.380375,37.749516 101.539551,36.8969727 C100.698726,36.0444293 100.27832,34.9091868 100.27832,33.4912109 L100.27832,33.2275391 C100.27832,32.2783156 100.461424,31.4301795 100.827637,30.6831055 C101.193849,29.9360314 101.708005,29.3544943 102.370117,28.9384766 C103.03223,28.5224589 103.770504,28.3144531 104.584961,28.3144531 C105.879889,28.3144531 106.880368,28.7275349 107.586426,29.5537109 C108.292484,30.3798869 108.645508,31.5488206 108.645508,33.0605469 L108.645508,33.921875 L102.431641,33.921875 C102.496094,34.7070352 102.758298,35.3281227 103.218262,35.7851562 C103.678225,36.2421898 104.256832,36.4707031 104.954102,36.4707031 C105.932622,36.4707031 106.729489,36.0751993 107.344727,35.2841797 L108.496094,36.3828125 C108.115232,36.9511747 107.606937,37.3920883 106.971191,37.7055664 C106.335446,38.0190445 105.622074,38.1757812 104.831055,38.1757812 Z M104.576172,30.0283203 C103.990231,30.0283203 103.517092,30.2333964 103.156738,30.6435547 C102.796385,31.053713 102.566407,31.6249963 102.466797,32.3574219 L106.536133,32.3574219 L106.536133,32.1992188 C106.489258,31.4843714 106.29883,30.9438495 105.964844,30.5776367 C105.630858,30.211424 105.167972,30.0283203 104.576172,30.0283203 Z M117.214844,33.2451172 L117.214844,38 L114.991211,38 L114.991211,25.203125 L119.886719,25.203125 C121.316413,25.203125 122.451656,25.5751916 123.29248,26.3193359 C124.133305,27.0634803 124.553711,28.0478454 124.553711,29.2724609 C124.553711,30.5263735 124.142094,31.5019496 123.318848,32.1992188 C122.495601,32.8964879 121.342781,33.2451172 119.860352,33.2451172 L117.214844,33.2451172 Z M117.214844,31.4609375 L119.886719,31.4609375 C120.677738,31.4609375 121.281248,31.2749042 121.697266,30.902832 C122.113283,30.5307599 122.321289,29.9931676 122.321289,29.2900391 C122.321289,28.5986294 122.110354,28.0463888 121.688477,27.6333008 C121.266599,27.2202128 120.686527,27.0078126 119.948242,26.9960938 L117.214844,26.9960938 L117.214844,31.4609375 Z M128.561523,38 L126.425781,38 L126.425781,24.5 L128.561523,24.5 L128.561523,38 Z M136.568359,38 C136.474609,37.8183585 136.392578,37.522463 136.322266,37.1123047 C135.642575,37.8212926 134.810552,38.1757812 133.826172,38.1757812 C132.871089,38.1757812 132.0918,37.903323 131.488281,37.3583984 C130.884763,36.8134738 130.583008,36.1396525 130.583008,35.3369141 C130.583008,34.3232371 130.959469,33.5454129 131.712402,33.003418 C132.465336,32.4614231 133.541985,32.1904297 134.942383,32.1904297 L136.251953,32.1904297 L136.251953,31.5664062 C136.251953,31.0742163 136.114259,30.6801773 135.838867,30.3842773 C135.563475,30.0883774 135.144534,29.9404297 134.582031,29.9404297 C134.095701,29.9404297 133.697267,30.0620105 133.386719,30.3051758 C133.07617,30.5483411 132.920898,30.85742 132.920898,31.2324219 L130.785156,31.2324219 C130.785156,30.7109349 130.958006,30.2231468 131.303711,29.769043 C131.649416,29.3149391 132.119626,28.9589857 132.714355,28.7011719 C133.309085,28.4433581 133.972653,28.3144531 134.705078,28.3144531 C135.818365,28.3144531 136.706051,28.5942355 137.368164,29.1538086 C138.030277,29.7133817 138.370117,30.4999949 138.387695,31.5136719 L138.387695,35.8027344 C138.387695,36.6582074 138.507811,37.3408178 138.748047,37.8505859 L138.748047,38 L136.568359,38 Z M134.22168,36.4619141 C134.643557,36.4619141 135.040525,36.359376 135.412598,36.1542969 C135.78467,35.9492177 136.064452,35.6738299 136.251953,35.328125 L136.251953,33.5351562 L135.100586,33.5351562 C134.309566,33.5351562 133.714846,33.6728502 133.316406,33.9482422 C132.917967,34.2236342 132.71875,34.6132787 132.71875,35.1171875 C132.71875,35.5273458 132.854979,35.8540027 133.127441,36.097168 C133.399904,36.3403332 133.764646,36.4619141 134.22168,36.4619141 Z M143.951172,34.9414062 L145.884766,28.4902344 L148.161133,28.4902344 L144.381836,39.4414062 C143.801755,41.0410236 142.81739,41.8408203 141.428711,41.8408203 C141.118163,41.8408203 140.775393,41.7880865 140.400391,41.6826172 L140.400391,40.0302734 L140.804688,40.0566406 C141.343753,40.0566406 141.74951,39.9584971 142.021973,39.762207 C142.294435,39.565917 142.509765,39.2363304 142.667969,38.7734375 L142.975586,37.9560547 L139.635742,28.4902344 L141.938477,28.4902344 L143.951172,34.9414062 Z" fill="#3398F2"></path>
                    <path d="M12,36.9477864 L12,11.0552293 C12,10.1516857 12.5238304,9.37065957 13.2839983,9 L28.2616056,23.9970909 L13.2779746,39 C12.521062,38.6282133 12,37.8489997 12,36.9477864 Z M33.0133014,28.7547721 L16.6362423,38.2223094 L29.5524338,25.2894341 L33.0133014,28.7547721 Z M38.1039042,22.1862873 C38.6486197,22.6037667 39,23.26159 39,24.0015079 C39,24.7303072 38.6592676,25.3792965 38.1285465,25.7975375 L34.6498817,27.8086276 L30.8431099,23.9970909 L34.6472958,20.1879607 L38.1039042,22.1862873 Z M16.6458406,9.78142214 L33.0107155,19.2418771 L29.5524338,22.7045954 L16.6458406,9.78142214 Z" id="logo" fill="#3398F2" fill-rule="nonzero"></path>
                </g>
            </g>
        </g>
    </g>
</svg>