<?xml version="1.0" encoding="utf-8"?>
<svg width="83px" height="83px" viewBox="0 0 83 83" version="1.1" xmlns:xlink="http://www.w3.org/1999/xlink" xmlns="http://www.w3.org/2000/svg">
  <desc>Created with Lunacy</desc>
  <g id="Group" transform="translate(1.5 1.5)">
    <path d="M14.999 0L65.001 0Q65.3692 0 65.737 0.0180669Q66.1047 0.0361339 66.4712 0.0722243Q66.8376 0.108315 67.2018 0.162341Q67.566 0.216368 67.9271 0.288202Q68.2883 0.360035 68.6455 0.449501Q69.0026 0.538968 69.355 0.645852Q69.7073 0.752736 70.054 0.87678Q70.4007 1.00082 70.7409 1.14173Q71.081 1.28264 71.4139 1.44006Q71.7467 1.59749 72.0715 1.77106Q72.3962 1.94463 72.712 2.13393Q73.0278 2.32322 73.334 2.52779Q73.6401 2.73235 73.9359 2.95169Q74.2316 3.17103 74.5163 3.40462Q74.8009 3.6382 75.0737 3.88547Q75.3465 4.13274 75.6069 4.39311Q75.8673 4.65346 76.1145 4.92629Q76.3618 5.19911 76.5954 5.48373Q76.829 5.76836 77.0483 6.06411Q77.2676 6.35985 77.4722 6.666Q77.6768 6.97215 77.8661 7.28797Q78.0554 7.60379 78.2289 7.92852Q78.4025 8.25325 78.5599 8.5861Q78.7174 8.91895 78.8583 9.25913Q78.9992 9.59931 79.1232 9.94599Q79.2473 10.2927 79.3541 10.645Q79.461 10.9974 79.5505 11.3545Q79.64 11.7117 79.7118 12.0728Q79.7836 12.434 79.8376 12.7982Q79.8917 13.1624 79.9278 13.5288Q79.9639 13.8953 79.9819 14.263Q80 14.6308 80 14.999L80 65.001Q80 65.3692 79.9819 65.737Q79.9639 66.1047 79.9278 66.4712Q79.8917 66.8376 79.8376 67.2018Q79.7836 67.566 79.7118 67.9271Q79.64 68.2883 79.5505 68.6455Q79.461 69.0026 79.3541 69.355Q79.2473 69.7073 79.1232 70.054Q78.9992 70.4007 78.8583 70.7409Q78.7174 71.081 78.5599 71.4139Q78.4025 71.7467 78.2289 72.0715Q78.0554 72.3962 77.8661 72.712Q77.6768 73.0278 77.4722 73.334Q77.2676 73.6401 77.0483 73.9359Q76.829 74.2316 76.5954 74.5163Q76.3618 74.8009 76.1145 75.0737Q75.8673 75.3465 75.6069 75.6069Q75.3465 75.8673 75.0737 76.1145Q74.8009 76.3618 74.5163 76.5954Q74.2316 76.829 73.9359 77.0483Q73.6401 77.2676 73.334 77.4722Q73.0279 77.6768 72.712 77.8661Q72.3962 78.0554 72.0715 78.2289Q71.7467 78.4025 71.4139 78.5599Q71.081 78.7174 70.7409 78.8583Q70.4007 78.9992 70.054 79.1232Q69.7073 79.2473 69.355 79.3541Q69.0026 79.461 68.6455 79.5505Q68.2883 79.64 67.9272 79.7118Q67.566 79.7836 67.2018 79.8376Q66.8376 79.8917 66.4712 79.9278Q66.1047 79.9639 65.737 79.9819Q65.3692 80 65.001 80L14.999 80Q14.6308 80 14.263 79.9819Q13.8953 79.9639 13.5288 79.9278Q13.1624 79.8917 12.7982 79.8376Q12.434 79.7836 12.0728 79.7118Q11.7117 79.64 11.3545 79.5505Q10.9974 79.461 10.645 79.3541Q10.2927 79.2473 9.94599 79.1232Q9.59931 78.9992 9.25913 78.8583Q8.91895 78.7174 8.5861 78.5599Q8.25325 78.4025 7.92852 78.2289Q7.60379 78.0554 7.28797 77.8661Q6.97215 77.6768 6.666 77.4722Q6.35985 77.2676 6.06411 77.0483Q5.76836 76.829 5.48373 76.5954Q5.19911 76.3618 4.92629 76.1145Q4.65346 75.8673 4.39311 75.6069Q4.13274 75.3465 3.88547 75.0737Q3.6382 74.8009 3.40462 74.5163Q3.17103 74.2316 2.95169 73.9359Q2.73235 73.6401 2.52779 73.334Q2.32322 73.0279 2.13393 72.712Q1.94463 72.3962 1.77106 72.0715Q1.59749 71.7467 1.44006 71.4139Q1.28264 71.081 1.14173 70.7409Q1.00082 70.4007 0.87678 70.054Q0.752736 69.7073 0.645852 69.355Q0.538968 69.0026 0.449501 68.6455Q0.360035 68.2883 0.288202 67.9272Q0.216368 67.566 0.162341 67.2018Q0.108315 66.8376 0.0722243 66.4712Q0.0361339 66.1047 0.0180669 65.737Q0 65.3692 0 65.001L0 14.999Q0 14.6308 0.0180669 14.263Q0.0361339 13.8953 0.0722243 13.5288Q0.108315 13.1624 0.162341 12.7982Q0.216368 12.434 0.288202 12.0728Q0.360035 11.7117 0.449501 11.3545Q0.538968 10.9974 0.645852 10.645Q0.752736 10.2927 0.87678 9.94599Q1.00082 9.59931 1.14173 9.25913Q1.28264 8.91895 1.44006 8.5861Q1.59749 8.25325 1.77106 7.92852Q1.94463 7.60379 2.13393 7.28797Q2.32322 6.97215 2.52779 6.666Q2.73235 6.35985 2.95169 6.06411Q3.17103 5.76836 3.40462 5.48373Q3.6382 5.19911 3.88547 4.92629Q4.13274 4.65346 4.39311 4.39311Q4.65346 4.13274 4.92629 3.88547Q5.19911 3.6382 5.48373 3.40462Q5.76836 3.17103 6.06411 2.95169Q6.35985 2.73235 6.666 2.52779Q6.97215 2.32322 7.28797 2.13393Q7.60379 1.94463 7.92852 1.77106Q8.25325 1.59749 8.5861 1.44006Q8.91895 1.28264 9.25913 1.14173Q9.59931 1.00082 9.94599 0.87678Q10.2927 0.752736 10.645 0.645852Q10.9974 0.538968 11.3545 0.449501Q11.7117 0.360035 12.0728 0.288202Q12.434 0.216368 12.7982 0.162341Q13.1624 0.108315 13.5288 0.0722243Q13.8953 0.0361339 14.263 0.0180669Q14.6308 0 14.999 0L14.999 0Z" id="Rectangle-Copy" fill="#DDE4EC" fill-opacity="0" stroke="none" />
    <path d="M14.999 0L45.001 0Q45.3692 0 45.737 0.0180669Q46.1047 0.0361339 46.4712 0.0722243Q46.8376 0.108315 47.2018 0.162341Q47.566 0.216368 47.9272 0.288202Q48.2883 0.360035 48.6455 0.449501Q49.0026 0.538968 49.355 0.645852Q49.7073 0.752736 50.054 0.87678Q50.4007 1.00082 50.7409 1.14173Q51.081 1.28264 51.4139 1.44006Q51.7467 1.59749 52.0715 1.77106Q52.3962 1.94463 52.712 2.13393Q53.0278 2.32322 53.334 2.52779Q53.6401 2.73235 53.9359 2.95169Q54.2316 3.17103 54.5163 3.40462Q54.8009 3.6382 55.0737 3.88547Q55.3465 4.13274 55.6069 4.39311Q55.8673 4.65346 56.1145 4.92629Q56.3618 5.19911 56.5954 5.48373Q56.829 5.76836 57.0483 6.06411Q57.2676 6.35985 57.4722 6.666Q57.6768 6.97215 57.8661 7.28797Q58.0554 7.60379 58.2289 7.92852Q58.4025 8.25325 58.5599 8.5861Q58.7174 8.91895 58.8583 9.25913Q58.9992 9.59931 59.1232 9.94599Q59.2473 10.2927 59.3541 10.645Q59.461 10.9974 59.5505 11.3545Q59.64 11.7117 59.7118 12.0728Q59.7836 12.434 59.8377 12.7982Q59.8917 13.1624 59.9278 13.5288Q59.9639 13.8953 59.9819 14.263Q60 14.6308 60 14.999L60 45.001Q60 45.3692 59.9819 45.737Q59.9639 46.1047 59.9278 46.4712Q59.8917 46.8376 59.8377 47.2018Q59.7836 47.566 59.7118 47.9272Q59.64 48.2883 59.5505 48.6455Q59.461 49.0026 59.3541 49.355Q59.2473 49.7073 59.1232 50.054Q58.9992 50.4007 58.8583 50.7409Q58.7174 51.081 58.5599 51.4139Q58.4025 51.7467 58.2289 52.0715Q58.0554 52.3962 57.8661 52.712Q57.6768 53.0278 57.4722 53.334Q57.2676 53.6401 57.0483 53.9359Q56.829 54.2316 56.5954 54.5163Q56.3618 54.8009 56.1145 55.0737Q55.8673 55.3465 55.6069 55.6069Q55.3465 55.8673 55.0737 56.1145Q54.8009 56.3618 54.5163 56.5954Q54.2316 56.829 53.9359 57.0483Q53.6401 57.2676 53.334 57.4722Q53.0278 57.6768 52.712 57.8661Q52.3962 58.0554 52.0715 58.2289Q51.7467 58.4025 51.4139 58.5599Q51.081 58.7174 50.7409 58.8583Q50.4007 58.9992 50.054 59.1232Q49.7073 59.2473 49.355 59.3541Q49.0026 59.461 48.6455 59.5505Q48.2883 59.64 47.9272 59.7118Q47.566 59.7836 47.2018 59.8377Q46.8376 59.8917 46.4712 59.9278Q46.1047 59.9639 45.737 59.9819Q45.3692 60 45.001 60L14.999 60Q14.6308 60 14.263 59.9819Q13.8953 59.9639 13.5288 59.9278Q13.1624 59.8917 12.7982 59.8377Q12.434 59.7836 12.0728 59.7118Q11.7117 59.64 11.3545 59.5505Q10.9974 59.461 10.645 59.3541Q10.2927 59.2473 9.94599 59.1232Q9.59931 58.9992 9.25913 58.8583Q8.91895 58.7174 8.5861 58.5599Q8.25325 58.4025 7.92852 58.2289Q7.60379 58.0554 7.28797 57.8661Q6.97215 57.6768 6.666 57.4722Q6.35985 57.2676 6.06411 57.0483Q5.76836 56.829 5.48373 56.5954Q5.19911 56.3618 4.92629 56.1145Q4.65346 55.8673 4.39311 55.6069Q4.13274 55.3465 3.88547 55.0737Q3.6382 54.8009 3.40462 54.5163Q3.17103 54.2316 2.95169 53.9359Q2.73235 53.6401 2.52779 53.334Q2.32322 53.0278 2.13393 52.712Q1.94463 52.3962 1.77106 52.0715Q1.59749 51.7467 1.44006 51.4139Q1.28264 51.081 1.14173 50.7409Q1.00082 50.4007 0.87678 50.054Q0.752736 49.7073 0.645852 49.355Q0.538968 49.0026 0.449501 48.6455Q0.360035 48.2883 0.288202 47.9272Q0.216368 47.566 0.162341 47.2018Q0.108315 46.8376 0.0722243 46.4712Q0.0361339 46.1047 0.0180669 45.737Q0 45.3692 0 45.001L0 14.999Q0 14.6308 0.0180669 14.263Q0.0361339 13.8953 0.0722243 13.5288Q0.108315 13.1624 0.162341 12.7982Q0.216368 12.434 0.288202 12.0728Q0.360035 11.7117 0.449501 11.3545Q0.538968 10.9974 0.645852 10.645Q0.752736 10.2927 0.87678 9.94599Q1.00082 9.59931 1.14173 9.25913Q1.28264 8.91895 1.44006 8.5861Q1.59749 8.25325 1.77106 7.92852Q1.94463 7.60379 2.13393 7.28797Q2.32322 6.97215 2.52779 6.666Q2.73235 6.35985 2.95169 6.06411Q3.17103 5.76836 3.40462 5.48373Q3.6382 5.19911 3.88547 4.92629Q4.13274 4.65346 4.39311 4.39311Q4.65346 4.13274 4.92629 3.88547Q5.19911 3.6382 5.48373 3.40462Q5.76836 3.17103 6.06411 2.95169Q6.35985 2.73235 6.666 2.52779Q6.97215 2.32322 7.28797 2.13393Q7.60379 1.94463 7.92852 1.77106Q8.25325 1.59749 8.5861 1.44006Q8.91895 1.28264 9.25913 1.14173Q9.59931 1.00082 9.94599 0.87678Q10.2927 0.752736 10.645 0.645852Q10.9974 0.538968 11.3545 0.449501Q11.7117 0.360035 12.0728 0.288202Q12.434 0.216368 12.7982 0.162341Q13.1624 0.108315 13.5288 0.0722243Q13.8953 0.0361339 14.263 0.0180669Q14.6308 0 14.999 0L14.999 0Z" transform="translate(10 10)" id="Rectangle" fill="#234B7E" stroke="#FFFFFF" stroke-opacity="0.5686275" stroke-width="3" />
    <g stroke="#FFFFFF" stroke-width="1" id="AM..." fill="#FFFFFF" transform="translate(11 36)">
      <path d="M33.8184 8.14941L37.7322 23.0522L35.8169 23.0522L33.4485 13.9468L29.3711 23.6025L25.2814 13.867L22.8806 23.0522L20.9763 23.0522L24.8901 8.14941L29.3693 18.8124L33.8184 8.14941ZM13.4575 8.19434L20.2126 23.0522L18.1648 23.0522L16.5045 19.3911L10.433 19.3911L8.79126 23.0522L6.75854 23.0522L13.4575 8.19434ZM13.4523 12.6597L11.1635 17.7627L15.7659 17.7627L13.4523 12.6597ZM39.6582 20.6714Q39.2146 21.1206 39.2146 21.7383Q39.2146 22.3784 39.6582 22.8164Q40.1018 23.2544 40.7307 23.2544Q41.3596 23.2544 41.8032 22.8108Q42.2468 22.3672 42.2468 21.7383Q42.2468 21.1206 41.7976 20.6714Q41.3484 20.2222 40.7307 20.2222Q40.1018 20.2222 39.6582 20.6714ZM44.2571 21.7383Q44.2571 21.1206 44.7007 20.6714Q45.1443 20.2222 45.7732 20.2222Q46.3909 20.2222 46.8401 20.6714Q47.2893 21.1206 47.2893 21.7383Q47.2893 22.3672 46.8457 22.8108Q46.4021 23.2544 45.7732 23.2544Q45.1443 23.2544 44.7007 22.8164Q44.2571 22.3784 44.2571 21.7383ZM49.7432 20.6714Q49.2996 21.1206 49.2996 21.7383Q49.2996 22.3784 49.7432 22.8164Q50.1868 23.2544 50.8157 23.2544Q51.4446 23.2544 51.8882 22.8108Q52.3318 22.3672 52.3318 21.7383Q52.3318 21.1206 51.8826 20.6714Q51.4333 20.2222 50.8157 20.2222Q50.1868 20.2222 49.7432 20.6714Z" />
    </g>
    <g stroke="#FFFFFF" stroke-width="0" id="I" fill="#FFFFFF" transform="translate(24 10.39648)">
      <path d="M18.5977 29.6119L18.5977 32.1289Q16.3652 33.043 14.3613 33.043Q12.2871 33.043 10.3535 32.1289L10.3535 30.1928L8.83713 28.4328Q7.4935 25.9334 6.96313 21.991L7.15567 19.8792L3.79715 14.0526Q3.04102 12.7364 3.04102 11.9465Q3.04102 11.2444 3.50725 10.7619Q3.97348 10.2793 4.642 10.2793Q5.62747 10.2793 6.61267 11.8965L9.65643 16.9063L7.77036 9.73438Q7.41797 8.39844 7.41797 7.88867Q7.41797 6.9043 7.84863 6.4209Q8.2793 5.9375 9.14063 5.9375Q10.6172 5.9375 11.2676 8.1875L13.377 15.5527L13.377 7.15039Q13.377 5.7793 13.8691 5.09375Q14.3613 4.4082 15.3457 4.4082Q17.2969 4.4082 17.2969 7.50195L17.1035 15.9043L19.3008 9.36523Q20.2676 6.48242 21.6738 6.48242Q22.4824 6.48242 22.8867 6.88617Q23.291 7.28992 23.291 8.11499Q23.291 8.95737 23.0098 10.0983L20.8301 18.5591Q21.0059 19.1576 21.1289 20.407Q21.6914 20.0904 22.6934 19.7383Q23.4141 18.5331 24.293 17.9306Q25.1719 17.3281 26.2266 17.3281Q27.2461 17.3281 28.7051 18.5624L29.0566 18.8407L25.2598 22.4486L22.0254 26.7783Q20.1094 28.5735 18.5977 29.6119ZM17.7363 29.1895Q20.1154 27.3416 21.5782 25.8983L24.5391 21.9383L27.791 18.8934Q26.9473 18.1895 26.1914 18.1895Q25.3477 18.1895 24.627 18.7439Q23.9063 19.2982 23.3086 20.4246Q20.2118 21.3925 18.1005 23.9446L17.432 23.4167Q18.4886 21.8328 20.3203 20.847Q20.1621 19.5976 19.8633 18.5591L22.0781 10.2925Q22.4297 9.02878 22.4297 8.44952Q22.4297 7.923 22.2363 7.66853Q22.043 7.41406 21.6563 7.41406Q20.918 7.41406 20.3027 9.22461L17.7539 16.7832L16.2422 16.7832L16.4531 8.13916L16.4707 7.57584Q16.4707 5.26953 15.3633 5.26953Q14.8184 5.26953 14.5371 5.66559Q14.2559 6.06165 14.2559 6.87161L14.2734 7.98068L14.2734 16.7832L12.8889 17.0293L10.6979 8.96094Q10.1195 6.79883 9.19061 6.79883Q8.73495 6.79883 8.50713 7.07101Q8.2793 7.3432 8.2793 7.90488Q8.2793 8.27374 8.59351 9.39737L10.9336 17.9483L9.65643 18.5591L5.84967 12.3683Q5.13034 11.1758 4.6041 11.1758Q4.25308 11.1758 4.07771 11.3687Q3.90234 11.5617 3.90234 11.9654Q3.90234 12.4741 4.55219 13.5972L8.06396 19.6152L7.84863 21.991Q8.39273 25.6168 9.65643 28.0807L11.2676 30.0168L11.2676 31.548Q12.8103 32.1465 14.5283 32.1465Q15.9483 32.1465 17.7363 31.548L17.7363 29.1895Z" />
    </g>
  </g>
</svg>